<svg width="453" height="453" viewBox="0 0 453 453" fill="none" xmlns="http://www.w3.org/2000/svg">
<g clip-path="url(#clip0_89_11)">
<path d="M215.965 70.9052C210.907 75.6718 204.068 82.5432 197.268 90.2434C183.681 105.673 168.843 124.382 168.229 145.092C167.714 162.479 171.599 203.695 175.524 242.139C176.29 249.731 176.346 249.514 177.085 256.553L163.93 267.659C159.114 271.72 155.331 276.867 152.891 282.676C150.451 288.484 149.424 294.789 149.895 301.071L152.234 334.057L153.736 350.683L167.695 341.816L196.086 324.088L250.41 325.698L277.701 345.077L291.349 354.544L293.586 338.255L297.884 305.445C298.726 299.201 298.074 292.847 295.983 286.904C293.891 280.961 290.42 275.6 285.853 271.259L273.592 259.62C274.81 252.426 274.74 252.629 276.024 244.878C282.243 206.657 288.754 165.785 289.268 148.673C289.87 128.127 275.789 108.446 263.085 92.1807C250.388 75.9228 237.625 63.7941 237.625 63.7941L231.172 57.4129L224.372 63.4083C224.372 63.4083 221.023 66.1386 215.965 70.9052ZM223.089 91.674C225.985 88.9443 228.195 87.1776 230.353 85.2538C234.425 89.4139 238.756 93.6594 247.247 104.551C258.956 119.541 269.221 138.861 268.948 148.078C268.575 160.659 262.407 203.572 256.227 241.66C252.787 263.009 249.28 284.347 245.705 305.673L202.407 304.39C201.619 297.575 198.702 274.023 195.245 240.29C191.358 201.989 187.72 158.658 188.104 145.681C188.398 136.019 199.615 117.506 212.133 103.29C215.614 99.2605 219.269 95.3847 223.089 91.674ZM214.098 148.666C205.969 156.327 205.812 169.034 213.473 177.163C221.14 185.299 233.835 185.895 241.964 178.234C245.873 174.533 248.157 169.434 248.318 164.053C248.479 158.672 246.503 153.446 242.823 149.517C239.12 145.607 234.019 143.323 228.636 143.163C223.253 143.004 218.026 144.982 214.098 148.666ZM176.737 283.071L179.679 280.725C180.764 290.654 182.361 306.696 182.6 308.889L170.899 316.054L169.822 299.893C169.565 296.743 170.057 293.575 171.259 290.652C172.461 287.728 174.338 285.13 176.737 283.071ZM195.719 336.471C195.353 348.564 199.922 360.527 204.215 370.099C208.529 379.678 213.011 386.722 213.011 386.722L220.822 399.546L229.586 387.426C229.586 387.426 234.439 380.969 239.323 371.805C244.214 362.633 249.457 350.932 249.825 338.287L229.949 337.698C229.763 343.988 226.019 352.89 222.2 360.459C218.714 352.312 215.471 342.383 215.601 337.053L195.719 336.471ZM269.357 283.384L272.155 285.9C274.459 288.035 276.217 290.691 277.283 293.646C278.349 296.601 278.691 299.769 278.28 302.883L276.035 319.179L264.772 311.325C265.162 309.172 267.658 293.202 269.357 283.384Z" fill="url(#paint0_linear_89_11)"/>
</g>
<defs>
<linearGradient id="paint0_linear_89_11" x1="137.265" y1="145.073" x2="314.294" y2="332.921" gradientUnits="userSpaceOnUse">
<stop stop-color="#B726A3"/>
<stop offset="0.8375" stop-color="white"/>
</linearGradient>
<clipPath id="clip0_89_11">
<rect width="320" height="320" fill="white" transform="translate(0 219.469) rotate(-43.3017)"/>
</clipPath>
</defs>
</svg>
